<svg width="78" height="91" viewBox="0 0 78 91" fill="none" xmlns="http://www.w3.org/2000/svg">
<path d="M54.0945 44.6623C53.253 42.2768 52.7859 40.3864 51.9359 38.6875C50.9281 36.6725 48.8879 36.2829 47.6966 38.0755C45.8942 40.7877 43.1907 40.9292 40.5372 41.5764C37.3228 42.3609 34.2737 42.8634 32.0437 39.5476C31.7813 39.1569 31.0785 39.0611 29.9619 38.5396C29.9619 41.1943 29.9608 43.402 29.9619 45.6096C29.963 47.0381 29.9566 48.4677 29.9779 49.8962C30.0035 51.6376 30.0334 53.395 32.8788 53.048C32.7753 53.3408 32.6719 53.6335 32.5673 53.9262C31.4774 53.9262 30.3053 54.1646 29.3327 53.8283C28.8314 53.6548 28.4763 52.4743 28.4208 51.7217C28.2854 49.8824 28.4752 48.0164 28.295 46.1844C28.231 45.533 27.5111 44.4877 27.0269 44.4505C26.4009 44.4026 25.2064 45.1221 25.1435 45.6213C24.9547 47.1275 24.7212 48.9243 25.3536 50.1836C27.6146 54.6809 30.1709 59.0356 32.7604 63.3583C33.1646 64.0332 34.2833 64.4962 35.1408 64.6367C36.4419 64.8485 37.8038 64.6921 39.3502 64.6921C40.2983 69.4821 41.2145 74.1146 42.1316 78.7471C41.9653 78.8195 41.7989 78.8919 41.6325 78.9632C39.8056 76.2861 37.9937 73.5983 36.1476 70.934C31.6011 64.3727 27.0056 57.8434 22.5146 51.2449C21.7339 50.0974 20.9117 48.6785 20.8903 47.3724C20.8327 43.7064 18.2316 41.7659 14.309 41.5264C12.2933 41.4029 10.267 41.4338 8.25134 41.3114C7.17418 41.2465 6.10769 41.0027 4.39917 40.744C5.47846 39.7743 6.08636 39.0111 6.87343 38.5587C10.1476 36.6757 13.4153 34.7597 16.8131 33.1204C18.302 32.4019 18.976 31.5674 19.1168 29.9707C19.4346 26.3739 19.795 22.7761 20.3347 19.208C20.5629 17.6955 21.3809 16.2808 21.7446 14.7757C21.9419 13.9592 21.8811 13.0204 21.7051 12.1848C21.1836 9.70035 22.2885 8.47517 24.5047 7.83437C32.4916 5.52451 40.4615 7.4501 48.4367 7.56187C51.8282 7.60977 54.007 9.14897 55.0362 12.3381C56.4525 16.7279 57.9349 21.0996 59.204 25.5319C59.6477 27.0818 60.2407 27.8503 61.9225 27.7109C64.689 27.481 67.463 27.3213 70.2369 27.2095C72.5299 27.1169 73.4023 28.0313 72.5309 30.0718C71.7695 31.8559 70.6891 33.8315 69.1704 34.9076C64.3243 38.3405 59.2094 41.3944 54.0913 44.6633L54.0945 44.6623ZM56.0974 21.6754C55.2623 18.8046 54.5669 16.4011 53.8652 13.9986C52.852 10.5328 50.43 9.06487 46.9181 8.91585C42.2095 8.71573 37.5105 8.25483 32.802 8.13667C30.0462 8.06748 27.2584 8.3006 24.5228 8.67316C22.425 8.95949 22.3237 10.6296 22.6244 12.3657C22.7578 13.1364 23.1268 14.2519 22.7652 14.6618C20.1555 17.6199 21.6774 21.0219 21.1346 24.5409C32.658 21.0495 44.0087 20.4811 56.0984 21.6754H56.0974ZM7.55172 39.3549C23.3017 38.6141 38.2667 34.3509 53.0888 29.4449C36.9432 28.3197 21.5633 30.6988 7.55172 39.3549ZM57.3921 28.3048C57.0369 23.8586 55.338 22.1757 51.6149 22.4578V27.6758C53.5442 27.8865 55.3412 28.0824 57.3921 28.3059V28.3048Z" fill="#EFF2F4"/>
<path d="M43.6217 82.7611C42.5658 73.378 41.51 63.9949 40.4659 54.7245C46.819 51.3566 53.684 47.7183 60.5501 44.079C58.4256 59.3538 52.6975 73.3812 43.3977 85.8917C38.1346 80.9399 33.2287 75.7581 27.7267 71.3087C22.2108 66.8486 16.1019 63.1188 10.2202 59.0462C13.5562 56.8109 17.1055 54.4329 20.8894 51.8974C28.1383 62.3226 35.3457 72.6893 42.553 83.056C42.9092 82.957 43.2655 82.8591 43.6206 82.7601L43.6217 82.7611Z" fill="#EFF2F4"/>
<path d="M56.0974 21.6744C44.0077 20.4801 32.657 21.0495 21.1335 24.5399C21.6775 21.0219 20.1545 17.6188 22.7642 14.6607C23.1258 14.2509 22.7578 13.1353 22.6234 12.3647C22.3227 10.6286 22.424 8.95736 24.5218 8.67209C27.2573 8.29953 30.0451 8.06642 32.801 8.13561C37.5095 8.25376 42.2085 8.71467 46.917 8.91479C50.429 9.06381 52.851 10.5317 53.8642 13.9975C54.5659 16.4 55.2623 18.8035 56.0963 21.6744H56.0974Z" fill="#031C30"/>
<path d="M7.55176 39.3549C21.5633 30.6988 36.9432 28.3197 53.0888 29.4449C38.2667 34.3509 23.3017 38.6151 7.55176 39.3549Z" fill="#031C30"/>
<path d="M57.3922 28.3048C55.3413 28.0813 53.5443 27.8854 51.615 27.6747V22.4567C55.3381 22.1747 57.037 23.8576 57.3922 28.3038V28.3048Z" fill="#031C30"/>
</svg>
