<svg width="138" height="161" viewBox="0 0 138 161" fill="none" xmlns="http://www.w3.org/2000/svg">
<path d="M95.7059 79.0179C94.2172 74.7975 93.3907 71.4528 91.8869 68.4471C90.1038 64.8821 86.4942 64.1928 84.3866 67.3643C81.1978 72.1628 76.4146 72.4133 71.72 73.5583C66.033 74.9463 60.6384 75.8352 56.693 69.9688C56.2288 69.2776 54.9854 69.1082 53.0098 68.1854C53.0098 72.8822 53.0079 76.7881 53.0098 80.694C53.0117 83.2213 53.0004 85.7505 53.0381 88.2779C53.0834 91.3589 53.1363 94.4681 58.1704 93.8542C57.9874 94.3721 57.8044 94.89 57.6195 95.4079C55.6911 95.4079 53.6174 95.8297 51.8966 95.2346C51.0097 94.9277 50.3814 92.8391 50.2833 91.5077C50.0437 88.2534 50.3795 84.952 50.0607 81.7109C49.9474 80.5584 48.6738 78.709 47.8172 78.6431C46.7096 78.5584 44.5963 79.8314 44.4849 80.7147C44.151 83.3795 43.7377 86.5585 44.8567 88.7864C48.8568 96.7431 53.3797 104.448 57.961 112.095C58.6761 113.289 60.6554 114.109 62.1725 114.357C64.4744 114.732 66.884 114.455 69.6199 114.455C71.2974 122.93 72.9182 131.126 74.5409 139.322C74.2465 139.45 73.9522 139.578 73.6578 139.704C70.4256 134.968 67.2198 130.212 63.9537 125.499C55.9099 113.89 47.7794 102.338 39.8338 90.664C38.4526 88.6338 36.9979 86.1234 36.9601 83.8127C36.8582 77.3267 32.2561 73.8935 25.3162 73.4698C21.7501 73.2513 18.165 73.3059 14.5988 73.0894C12.6931 72.9745 10.8062 72.5432 7.78345 72.0856C9.69296 70.3699 10.7685 69.0196 12.161 68.2193C17.9537 64.8878 23.735 61.4979 29.7466 58.5977C32.3807 57.3265 33.5732 55.85 33.8222 53.0251C34.3845 46.6616 35.0223 40.2961 35.9771 33.9835C36.3808 31.3073 37.8281 28.8045 38.4715 26.1416C38.8206 24.6971 38.713 23.0361 38.4017 21.5577C37.479 17.1622 39.4338 14.9945 43.3547 13.8608C57.4855 9.77413 71.5861 13.1809 85.6961 13.3787C91.6963 13.4634 95.5512 16.1866 97.372 21.8289C99.8778 29.5955 102.501 37.33 104.746 45.1719C105.531 47.9139 106.58 49.2736 109.556 49.0269C114.45 48.6202 119.358 48.3377 124.266 48.1399C128.322 47.9761 129.866 49.5938 128.324 53.204C126.977 56.3604 125.066 59.8557 122.379 61.7597C113.805 67.8332 104.755 73.2363 95.7003 79.0198L95.7059 79.0179ZM99.2495 38.3489C97.772 33.2697 96.5418 29.0173 95.3002 24.7668C93.5077 18.6349 89.2226 16.0379 83.0092 15.7742C74.6786 15.4201 66.3651 14.6047 58.0346 14.3957C53.1589 14.2732 48.2266 14.6857 43.3868 15.3448C39.6753 15.8514 39.4961 18.8062 40.0282 21.8778C40.264 23.2413 40.9169 25.215 40.2772 25.94C35.6601 31.1736 38.3526 37.1925 37.3922 43.4186C57.7798 37.2415 77.8618 36.2358 99.2513 38.3489H99.2495ZM13.361 69.6279C41.2263 68.3172 67.7029 60.7747 93.9266 52.0948C65.3613 50.1042 38.1507 54.3133 13.361 69.6279ZM101.54 50.0778C100.912 42.2114 97.906 39.234 91.3189 39.733V48.9648C94.7323 49.3377 97.9117 49.6842 101.54 50.0797V50.0778Z" fill="#031C30"/>
<path d="M77.1767 146.424C75.3087 129.823 73.4407 113.222 71.5934 96.8203C82.8335 90.8617 94.9793 84.4247 107.127 77.9858C103.368 105.011 93.2339 129.828 76.7804 151.962C67.4687 143.201 58.7891 134.034 49.0548 126.162C39.2959 118.271 28.4879 111.672 18.0818 104.466C23.9839 100.512 30.2634 96.3043 36.958 91.8184C49.7831 110.263 62.5345 128.604 75.286 146.945C75.9162 146.77 76.5464 146.597 77.1748 146.422L77.1767 146.424Z" fill="#031C30"/>
<path d="M99.2493 38.347C77.8597 36.2339 57.7778 37.2415 37.3901 43.4167C38.3524 37.1925 35.658 31.1717 40.2752 25.9382C40.9148 25.2131 40.2638 23.2394 40.0261 21.876C39.494 18.8044 39.6732 15.8476 43.3847 15.3429C48.2245 14.6838 53.1568 14.2714 58.0325 14.3938C66.363 14.6028 74.6766 15.4183 83.0071 15.7723C89.2206 16.036 93.5056 18.633 95.2982 24.7649C96.5397 29.0154 97.7719 33.2678 99.2474 38.347H99.2493Z" fill="white"/>
<path d="M13.3608 69.6279C38.1505 54.3132 65.3611 50.1041 93.9264 52.0948C67.7027 60.7747 41.2261 68.319 13.3608 69.6279Z" fill="white"/>
<path d="M101.54 50.0778C97.9116 49.6823 94.7322 49.3358 91.3188 48.9629V39.7312C97.9059 39.2321 100.912 42.2095 101.54 50.0759V50.0778Z" fill="white"/>
</svg>
